<mxfile host="65bd71144e">
    <diagram id="4Sz6ZQMuRcUtv2DzOwzH" name="PÃ¡gina-1">
        <mxGraphModel dx="1054" dy="610" grid="1" gridSize="10" guides="1" tooltips="1" connect="1" arrows="1" fold="1" page="1" pageScale="1" pageWidth="827" pageHeight="1169" math="0" shadow="0">
            <root>
                <mxCell id="0"/>
                <mxCell id="1" parent="0"/>
                <mxCell id="3" value="" style="rounded=1;whiteSpace=wrap;html=1;rotation=-90;perimeterSpacing=0;" vertex="1" parent="1">
                    <mxGeometry x="80" y="175" width="285" height="120" as="geometry"/>
                </mxCell>
                <mxCell id="9" value="FRONTEND&lt;br&gt;BACKEND" style="shape=document;whiteSpace=wrap;html=1;boundedLbl=1;fillColor=#60a917;fontColor=#ffffff;strokeColor=#000000;" vertex="1" parent="1">
                    <mxGeometry x="177" y="112" width="90" height="70" as="geometry"/>
                </mxCell>
                <mxCell id="11" value="FRONTEND&lt;br&gt;BACKEND" style="shape=document;whiteSpace=wrap;html=1;boundedLbl=1;fillColor=#60a917;fontColor=#ffffff;strokeColor=#000000;" vertex="1" parent="1">
                    <mxGeometry x="177.5" y="190" width="90" height="70" as="geometry"/>
                </mxCell>
                <mxCell id="12" value="BD" style="shape=cylinder3;whiteSpace=wrap;html=1;boundedLbl=1;backgroundOutline=1;size=15;strokeColor=#C73500;fillColor=#fa6800;fontColor=#000000;" vertex="1" parent="1">
                    <mxGeometry x="195" y="290" width="48.25" height="70" as="geometry"/>
                </mxCell>
                <mxCell id="13" value="" style="rounded=1;whiteSpace=wrap;html=1;rotation=-90;" vertex="1" parent="1">
                    <mxGeometry x="235" y="175" width="285" height="120" as="geometry"/>
                </mxCell>
                <mxCell id="14" value="FRONTEND&lt;br&gt;BACKEND" style="shape=document;whiteSpace=wrap;html=1;boundedLbl=1;fillColor=#60a917;fontColor=#ffffff;strokeColor=#000000;" vertex="1" parent="1">
                    <mxGeometry x="332" y="112" width="90" height="70" as="geometry"/>
                </mxCell>
                <mxCell id="15" value="FRONTEND&lt;br&gt;BACKEND" style="shape=document;whiteSpace=wrap;html=1;boundedLbl=1;fillColor=#60a917;fontColor=#ffffff;strokeColor=#000000;" vertex="1" parent="1">
                    <mxGeometry x="332.5" y="190" width="90" height="70" as="geometry"/>
                </mxCell>
                <mxCell id="17" value="" style="rounded=1;whiteSpace=wrap;html=1;rotation=-90;glass=0;" vertex="1" parent="1">
                    <mxGeometry x="385" y="174" width="285" height="120" as="geometry"/>
                </mxCell>
                <mxCell id="18" value="FRONTEND&lt;br&gt;BACKEND" style="shape=document;whiteSpace=wrap;html=1;boundedLbl=1;fillColor=#60a917;fontColor=#ffffff;strokeColor=#000000;" vertex="1" parent="1">
                    <mxGeometry x="482" y="111" width="90" height="70" as="geometry"/>
                </mxCell>
                <mxCell id="19" value="FRONTEND&lt;br&gt;BACKEND" style="shape=document;whiteSpace=wrap;html=1;boundedLbl=1;fillColor=#60a917;fontColor=#ffffff;strokeColor=#000000;" vertex="1" parent="1">
                    <mxGeometry x="482.5" y="189" width="90" height="70" as="geometry"/>
                </mxCell>
                <mxCell id="21" value="NODE 1" style="text;html=1;strokeColor=none;fillColor=none;align=center;verticalAlign=middle;whiteSpace=wrap;rounded=0;" vertex="1" parent="1">
                    <mxGeometry x="192.5" y="390" width="60" height="30" as="geometry"/>
                </mxCell>
                <mxCell id="22" value="NODE 2" style="text;html=1;strokeColor=none;fillColor=none;align=center;verticalAlign=middle;whiteSpace=wrap;rounded=0;" vertex="1" parent="1">
                    <mxGeometry x="347" y="390" width="60" height="30" as="geometry"/>
                </mxCell>
                <mxCell id="24" value="NODE 3" style="text;html=1;strokeColor=none;fillColor=none;align=center;verticalAlign=middle;whiteSpace=wrap;rounded=0;" vertex="1" parent="1">
                    <mxGeometry x="497.5" y="390" width="60" height="30" as="geometry"/>
                </mxCell>
                <mxCell id="32" value="SECRETS" style="rounded=0;whiteSpace=wrap;html=1;glass=0;strokeColor=#3A5431;fillColor=#6d8764;fontColor=#ffffff;" vertex="1" parent="1">
                    <mxGeometry x="177" y="450" width="88" height="40" as="geometry"/>
                </mxCell>
                <mxCell id="33" value="PV" style="rounded=0;whiteSpace=wrap;html=1;glass=0;strokeColor=#3A5431;fillColor=#6d8764;fontColor=#ffffff;" vertex="1" parent="1">
                    <mxGeometry x="177" y="490" width="88" height="40" as="geometry"/>
                </mxCell>
                <mxCell id="34" value="" style="whiteSpace=wrap;html=1;aspect=fixed;rounded=0;glass=0;strokeColor=default;fillColor=none;" vertex="1" parent="1">
                    <mxGeometry x="127.5" y="60" width="487.5" height="487.5" as="geometry"/>
                </mxCell>
                <mxCell id="35" value="LOAD BALANCER" style="rounded=0;whiteSpace=wrap;html=1;glass=0;strokeColor=#314354;fillColor=#647687;rotation=-90;fontColor=#ffffff;" vertex="1" parent="1">
                    <mxGeometry x="-20" y="270" width="250" height="40" as="geometry"/>
                </mxCell>
            </root>
        </mxGraphModel>
    </diagram>
</mxfile>